<svg id="visual" viewBox="0 0 960 540" width="960" height="540" xmlns="http://www.w3.org/2000/svg" xmlns:xlink="http://www.w3.org/1999/xlink" version="1.1"><path d="M0 87L14.5 85.3C29 83.7 58 80.3 87.2 89.3C116.3 98.3 145.7 119.7 174.8 134C204 148.3 233 155.7 262 159.3C291 163 320 163 349 165.7C378 168.3 407 173.7 436.2 162.8C465.3 152 494.7 125 523.8 108.8C553 92.7 582 87.3 611 83.8C640 80.3 669 78.7 698 82.3C727 86 756 95 785.2 100.3C814.3 105.7 843.7 107.3 872.8 114.5C902 121.7 931 134.3 945.5 140.7L960 147L960 0L945.5 0C931 0 902 0 872.8 0C843.7 0 814.3 0 785.2 0C756 0 727 0 698 0C669 0 640 0 611 0C582 0 553 0 523.8 0C494.7 0 465.3 0 436.2 0C407 0 378 0 349 0C320 0 291 0 262 0C233 0 204 0 174.8 0C145.7 0 116.3 0 87.2 0C58 0 29 0 14.5 0L0 0Z" fill="#6198ff"></path><path d="M0 293L14.5 294.7C29 296.3 58 299.7 87.2 303.2C116.3 306.7 145.7 310.3 174.8 321.2C204 332 233 350 262 345.5C291 341 320 314 349 297.8C378 281.7 407 276.3 436.2 273.7C465.3 271 494.7 271 523.8 272.8C553 274.7 582 278.3 611 280.2C640 282 669 282 698 296.3C727 310.7 756 339.3 785.2 335.7C814.3 332 843.7 296 872.8 283.5C902 271 931 282 945.5 287.5L960 293L960 145L945.5 138.7C931 132.3 902 119.7 872.8 112.5C843.7 105.3 814.3 103.7 785.2 98.3C756 93 727 84 698 80.3C669 76.7 640 78.3 611 81.8C582 85.3 553 90.7 523.8 106.8C494.7 123 465.3 150 436.2 160.8C407 171.7 378 166.3 349 163.7C320 161 291 161 262 157.3C233 153.7 204 146.3 174.8 132C145.7 117.7 116.3 96.3 87.2 87.3C58 78.3 29 81.7 14.5 83.3L0 85Z" fill="#3c80ff"></path><path d="M0 384L14.5 388.5C29 393 58 402 87.2 406.5C116.3 411 145.7 411 174.8 411C204 411 233 411 262 408.3C291 405.7 320 400.3 349 391.3C378 382.3 407 369.7 436.2 368.8C465.3 368 494.7 379 523.8 384.5C553 390 582 390 611 388.2C640 386.3 669 382.7 698 388C727 393.3 756 407.7 785.2 405C814.3 402.3 843.7 382.7 872.8 376.3C902 370 931 377 945.5 380.5L960 384L960 291L945.5 285.5C931 280 902 269 872.8 281.5C843.7 294 814.3 330 785.2 333.7C756 337.3 727 308.7 698 294.3C669 280 640 280 611 278.2C582 276.3 553 272.7 523.8 270.8C494.7 269 465.3 269 436.2 271.7C407 274.3 378 279.7 349 295.8C320 312 291 339 262 343.5C233 348 204 330 174.8 319.2C145.7 308.3 116.3 304.7 87.2 301.2C58 297.7 29 294.3 14.5 292.7L0 291Z" fill="#0066ff"></path><path d="M0 503L14.5 500.3C29 497.7 58 492.3 87.2 487C116.3 481.7 145.7 476.3 174.8 475.5C204 474.7 233 478.3 262 481C291 483.7 320 485.3 349 484.3C378 483.3 407 479.7 436.2 483.3C465.3 487 494.7 498 523.8 499.8C553 501.7 582 494.3 611 492.5C640 490.7 669 494.3 698 495.2C727 496 756 494 785.2 489.5C814.3 485 843.7 478 872.8 470.8C902 463.7 931 456.3 945.5 452.7L960 449L960 382L945.5 378.5C931 375 902 368 872.8 374.3C843.7 380.7 814.3 400.3 785.2 403C756 405.7 727 391.3 698 386C669 380.7 640 384.3 611 386.2C582 388 553 388 523.8 382.5C494.7 377 465.3 366 436.2 366.8C407 367.7 378 380.3 349 389.3C320 398.3 291 403.7 262 406.3C233 409 204 409 174.8 409C145.7 409 116.3 409 87.2 404.5C58 400 29 391 14.5 386.5L0 382Z" fill="#0059dd"></path><path d="M0 541L14.5 541C29 541 58 541 87.2 541C116.3 541 145.7 541 174.8 541C204 541 233 541 262 541C291 541 320 541 349 541C378 541 407 541 436.2 541C465.3 541 494.7 541 523.8 541C553 541 582 541 611 541C640 541 669 541 698 541C727 541 756 541 785.2 541C814.3 541 843.7 541 872.8 541C902 541 931 541 945.5 541L960 541L960 447L945.5 450.7C931 454.3 902 461.7 872.8 468.8C843.7 476 814.3 483 785.2 487.5C756 492 727 494 698 493.2C669 492.3 640 488.7 611 490.5C582 492.3 553 499.7 523.8 497.8C494.7 496 465.3 485 436.2 481.3C407 477.7 378 481.3 349 482.3C320 483.3 291 481.7 262 479C233 476.3 204 472.7 174.8 473.5C145.7 474.3 116.3 479.7 87.2 485C58 490.3 29 495.7 14.5 498.3L0 501Z" fill="#004cbb"></path></svg>