<svg id="visual" viewBox="0 0 960 540" width="960" height="540" xmlns="http://www.w3.org/2000/svg" xmlns:xlink="http://www.w3.org/1999/xlink" version="1.1"><rect x="0" y="0" width="960" height="540" fill="#18181b"></rect><defs><linearGradient id="grad1_0" x1="43.8%" y1="0%" x2="100%" y2="100%"><stop offset="14.444444444444446%" stop-color="#18181b" stop-opacity="1"></stop><stop offset="85.55555555555554%" stop-color="#18181b" stop-opacity="1"></stop></linearGradient></defs><defs><linearGradient id="grad2_0" x1="0%" y1="0%" x2="56.3%" y2="100%"><stop offset="14.444444444444446%" stop-color="#18181b" stop-opacity="1"></stop><stop offset="85.55555555555554%" stop-color="#18181b" stop-opacity="1"></stop></linearGradient></defs><g transform="translate(960, 0)"><path d="M0 486C-47.7 440.9 -95.5 395.9 -156.9 378.8C-218.3 361.7 -293.4 372.7 -343.7 343.7C-393.9 314.6 -419.3 245.7 -438.8 181.8C-458.4 117.8 -472.2 58.9 -486 0L0 0Z" fill="#0066ff"></path></g><g transform="translate(0, 540)"><path d="M0 -486C53.1 -457.9 106.3 -429.9 170.7 -412.1C235.1 -394.2 310.7 -386.7 343.7 -343.7C376.6 -300.6 366.8 -222 383.4 -158.8C400 -95.6 443 -47.8 486 0L0 0Z" fill="#0066ff"></path></g></svg>