<svg xmlns="http://www.w3.org/2000/svg" xml:space="preserve" width="2000" height="288" data-id="lg_wIObQHL3glTlybij3D" data-version="1" viewBox="0 0 2000 288"><g data-padding="20"><g transform="translate(10 5.17)scale(.9641)"><rect width="201.347" height="389.695" x="-99.722" y="327.44" fill="none" stroke="#06f" stroke-width="2" rx="60.39" ry="60.39" transform="matrix(0 -1.43 1.43 0 280 145.36)"/><rect width="182.8" height="369.522" x="-90.448" y="337.527" fill="#06f" rx="50" ry="50" transform="matrix(0 -1.43 1.43 0 280 144.26)"/><rect width="469.417" height="169.568" x="512.163" y="-86.145" fill="none" rx="0" ry="0" transform="translate(279.94 145.4)"/><path fill="#fff" d="M932.142 131.35h-14.18v-12.63h13.94q4.92 0 8.56-1.88 3.65-1.89 5.62-5.62t1.97-9.06q0-5.25-2.01-8.89-2.01-3.65-5.62-5.54-3.6-1.88-8.52-1.88h-14.6V73.22h14.68q6.72 0 12.38 2.09 5.65 2.09 9.84 5.95 4.18 3.85 6.51 9.18 2.34 5.33 2.34 11.8 0 6.56-2.34 11.89-2.33 5.33-6.51 9.18-4.19 3.86-9.8 5.95-5.62 2.09-12.26 2.09m-9.43 0h-14.67V73.22h14.67Zm54.85 0h-15l22.54-58.13h14.19l22.3 58.13h-15.34l-16.8-48.86h5.33Zm30.74-10.17h-32.05v-11.64h32.05Zm46.65 10.17h-13.28l-21.89-58.13h15.66l16.4 46.98h-6.73l16.65-46.98h15.33Zm39.35 0h-14.67V73.22h14.67Zm30.83 0h-14.18v-12.63h13.93q4.92 0 8.57-1.88 3.65-1.89 5.61-5.62 1.97-3.73 1.97-9.06 0-5.25-2.01-8.89-2-3.65-5.61-5.54-3.61-1.88-8.53-1.88h-14.59V73.22h14.67q6.73 0 12.38 2.09 5.66 2.09 9.84 5.95 4.18 3.85 6.52 9.18t2.34 11.8q0 6.56-2.34 11.89t-6.52 9.18q-4.18 3.86-9.8 5.95-5.61 2.09-12.25 2.09m-9.43 0h-14.67V73.22h14.67Zm-296.47 76.9h-15l22.54-58.13h14.19l22.3 58.13h-15.33l-16.81-48.86h5.33Zm30.75-10.17h-32.06v-11.64h32.06Zm39.93-13.36h-12.54v-10.49h11.06q3.61 0 5.54-1.77 1.92-1.76 1.92-4.79 0-2.95-1.92-4.8-1.93-1.84-5.54-1.84h-11.06v-10.91h13.11q5.91 0 10.37 2.22 4.47 2.21 7.01 6.06 2.55 3.86 2.55 9.02 0 5.17-2.59 9.06-2.58 3.89-7.17 6.07-4.59 2.17-10.74 2.17m-9.51 23.53h-14.67v-58.13h14.67Zm33.78 0h-16.97l-16.89-24.92 13.2-3.2Z"/><path fill="#fff" d="M927.202 208.25h-15l22.54-58.13h14.19l22.3 58.13h-15.33l-16.81-48.86h5.33Zm30.75-10.17h-32.06v-11.64h32.06Zm43.86 11.06q-6.65 0-12.26-2.25-5.62-2.26-9.84-6.36t-6.56-9.55q-2.33-5.45-2.33-11.85 0-6.47 2.41-11.92 2.42-5.46 6.77-9.51 4.34-4.06 10.12-6.32 5.78-2.25 12.34-2.25 7.79 0 14.1 2.75 6.31 2.74 10.25 7.58l-9.84 9.84q-2.95-3.53-6.47-5.29-3.53-1.76-8.2-1.76-4.76 0-8.49 2.09t-5.94 5.86q-2.22 3.77-2.22 8.85 0 5.09 2.1 8.94 2.09 3.85 5.73 5.98 3.65 2.13 8.41 2.13 4.75 0 8.07-1.8t5.09-5.25q1.76-3.44 1.76-8.19l9.92 6.39-26.48-.66v-11.96h31.31v2.21q0 10.41-3.77 17.62-3.77 7.22-10.45 10.95t-15.53 3.73m57.05 0q-7.37 0-12.99-3.07-5.62-3.08-8.73-8.57-3.12-5.49-3.12-12.46v-34.93h14.6v35.99q0 3.12 1.35 5.37 1.35 2.26 3.69 3.45 2.34 1.18 5.2 1.18 2.96 0 5.17-1.18 2.21-1.19 3.52-3.41 1.32-2.21 1.32-5.33v-36.07h14.75v35.01q0 6.97-3.11 12.42-3.12 5.45-8.65 8.53-5.53 3.07-13 3.07m45.18-.89h-14.68v-58.13h10.25l4.43 11.89Zm29.59-15-4.18 15-33.94-43.12 4.1-15.01Zm6.72 15h-10.9l-3.77-12.22v-45.91h14.67Zm30.83 0h-14.18v-12.63h13.93q4.92 0 8.57-1.88 3.65-1.89 5.62-5.62 1.96-3.73 1.96-9.06 0-5.24-2-8.89-2.01-3.65-5.62-5.54-3.61-1.88-8.53-1.88h-14.59v-12.63h14.68q6.72 0 12.38 2.09 5.65 2.09 9.83 5.95 4.18 3.85 6.52 9.18t2.34 11.8q0 6.56-2.34 11.89t-6.52 9.18q-4.18 3.86-9.79 5.95-5.62 2.09-12.26 2.09m-9.43 0h-14.67v-58.13h14.67Zm72.72-20.83h-10.82l-22.22-37.3h16.81l16.97 30.25h-11.81l16.97-30.25h16.48Zm2.13 20.83h-14.67v-26.81h14.67Z"/></g><path fill="transparent" stroke="transparent" d="M721.5 0h557v288h-557z"/></g></svg>